<svg xmlns="http://www.w3.org/2000/svg" xmlns:xlink="http://www.w3.org/1999/xlink" viewBox="0 0 741 741"><defs><style>.cls-1{fill:#232323;}.cls-2{fill:#2ca8a1;}.cls-3{fill:url(#Безымянный_градиент_11);}.cls-4{fill:url(#Безымянный_градиент_11-2);}.cls-5{fill:url(#Безымянный_градиент_11-3);}</style><linearGradient id="Безымянный_градиент_11" x1="131.65" y1="279.44" x2="313.44" y2="437.74" gradientUnits="userSpaceOnUse"><stop offset="0.27" stop-color="aqua"/><stop offset="1" stop-color="#00897c"/></linearGradient><linearGradient id="Безымянный_градиент_11-2" x1="372.72" y1="279.32" x2="554.5" y2="437.62" xlink:href="#Безымянный_градиент_11"/><linearGradient id="Безымянный_градиент_11-3" x1="252.72" y1="278.32" x2="434.5" y2="436.62" xlink:href="#Безымянный_градиент_11"/></defs><g id="Слой_2" data-name="Слой 2"><g id="Слой_2-2" data-name="Слой 2"><circle class="cls-1" cx="370.5" cy="370.5" r="370.5"/><path class="cls-2" d="M254.46,135a348.53,348.53,0,0,1-11.64,87C227.07,281,208,308.05,208.34,358.89c.09,13.91,11.22,41.23,12.71,46.08,7.46,24.35,13,38.47,15.95,47,24.25,70.47,6.45,153-.53,155a.55.55,0,0,1-.47,0c-2.07-1.61,26.87-31.18,42-69,15.5-38.76,13.17-77.9,6.08-98-.64-1.83-2.31-6.3-5.26-14.7-3.37-9.57-8-23.1-13.08-39.3-8.31-26.45-10.2-35.6-10.31-46-.27-24.69,9.65-42.89,12.6-49C279.56,267.13,283.91,223.15,254.46,135Z"/><path class="cls-3" d="M252.17,123a444,444,0,0,1-21.78,110c-18.13,54-34.79,85.27-34.47,136.92.08,13.65,3.61,28.67,12.7,46.08C249.88,495,228,590.09,224,618c-.27,1.93-.22,3.32.32,3.47,5,1.39,72.94-98,47.29-170.51-1.56-4.42-9.19-24.9-18.34-54-8.31-26.44-10.2-35.6-10.31-46-.26-24.75,9.71-43.05,12.61-49C267.05,278.5,273.82,230.59,252.17,123Z"/><path class="cls-2" d="M495.52,134.88a348.53,348.53,0,0,1-11.64,87c-15.75,59.07-34.79,86.08-34.47,136.92.08,13.91,11.21,41.24,12.7,46.08,7.47,24.36,13,38.47,15.95,47,24.25,70.48,6.46,153-.53,155a.52.52,0,0,1-.47,0c-2.07-1.61,26.88-31.18,42-69,15.5-38.76,13.17-77.9,6.08-98-.64-1.82-2.3-6.3-5.26-14.69-3.36-9.58-8-23.11-13.08-39.31-8.31-26.45-10.2-35.6-10.31-46-.27-24.69,9.65-42.89,12.61-49C520.63,267,525,223,495.52,134.88Z"/><path class="cls-4" d="M493.23,122.88a444.51,444.51,0,0,1-21.77,110c-18.14,54-34.8,85.27-34.48,136.92.08,13.65,3.61,28.68,12.7,46.08,41.26,79,19.39,174.09,15.43,202-.28,1.93-.23,3.32.32,3.47,5,1.39,72.93-98,47.28-170.51-1.56-4.42-9.19-24.9-18.33-54-8.31-26.44-10.21-35.6-10.32-46-.26-24.75,9.71-43.05,12.61-49C508.11,278.38,514.88,230.47,493.23,122.88Z"/><path class="cls-2" d="M375.52,133.88a348.53,348.53,0,0,1-11.64,87c-15.75,59.07-34.79,86.08-34.47,136.92.08,13.91,11.21,41.24,12.7,46.08,7.47,24.36,13,38.47,15.95,47,24.25,70.48,6.46,153-.53,155a.52.52,0,0,1-.47,0c-2.07-1.61,26.88-31.18,42-69,15.5-38.76,13.17-77.9,6.08-98-.64-1.82-2.3-6.3-5.26-14.69-3.36-9.58-8-23.11-13.08-39.31-8.31-26.45-10.2-35.6-10.31-46-.27-24.69,9.65-42.89,12.61-49C400.63,266,405,222,375.52,133.88Z"/><path class="cls-5" d="M373.23,121.88a444.51,444.51,0,0,1-21.77,110c-18.14,54-34.8,85.27-34.48,136.92.08,13.65,3.61,28.68,12.7,46.08,41.26,79,19.39,174.09,15.43,202-.28,1.93-.23,3.32.32,3.47,5,1.39,72.93-98,47.28-170.51-1.56-4.42-9.19-24.9-18.33-54-8.31-26.44-10.21-35.6-10.32-46-.26-24.75,9.71-43.05,12.61-49C388.11,277.38,394.88,229.47,373.23,121.88Z"/></g></g></svg>